<svg xmlns="http://www.w3.org/2000/svg" viewBox="0 0 100 100">
  <rect width="100" height="100" rx="22" fill="#0F172A"/>
  <path d="M66.5 21c-5.8-3.5-14.8-3.1-22.8 1.2-8.2 4.3-12.9 11-11.8 18.5 1.1 7.4 6.9 12.4 16 12.4 4.4 0 8.3-1.2 11.3-3.4 2.8-2 4.6-4.7 5.2-7.7l-6.3-1.3c-.4 2-1.8 3.8-4.1 5-1.9 1-4.5 1.6-7.2 1.6-6.7 0-10.5-3.5-11.2-8.8-.9-6.2 2.1-11.7 8.8-15.4 6.5-3.5 13.5-3.7 18.1-.4 5.3 3.8 7.1 10.8 5.4 18.2-1.7 7.6-7.4 13.6-16.5 16.1l1.6 6.1c11.3-3 18.5-9.8 21.4-19.2 3.5-11.2.8-21.8-8.1-25.6z" fill="#2563EB"/>
</svg>
