<svg xmlns="http://www.w3.org/2000/svg" viewBox="0 0 100 100">
  <rect width="100" height="100" rx="22" fill="#fff"/>
  <path d="M65.5 50.5c0-.8-.1-1.6-.2-2.3H50v4.4h8.8c-.4 2.3-1.7 4.2-3.7 5.4v4.5h6c3.5-3.2 5.6-8 5.6-13.9z" fill="#4285F4"/>
  <path d="M50 72.5c5 0 9.2-1.6 12.2-4.4l-6-4.5c-1.6 1.1-3.6 1.8-6.2 1.8-4.8 0-8.9-3.3-10.4-7.8h-6.1v4.9C33.7 67.8 41.2 72.5 50 72.5z" fill="#34A853"/>
  <path d="M39.6 54.1c-.4-1.1-.6-2.3-.6-3.5s.2-2.4.6-3.5v-4.9h-6.1c-1.2 2.4-1.9 5-1.9 7.9s.7 5.5 1.9 7.9l6.1-4z" fill="#FBBC05"/>
  <path d="M50 38.4c2.7 0 5.1.9 7 2.7l5.2-5.2C58.9 33 54.8 31.5 50 31.5c-8.8 0-16.3 4.7-20.4 11.7l6.1 4c1.4-4.5 5.6-7.8 10.4-7.8z" fill="#EA4335"/>
</svg>
